<svg width="83" height="24" viewBox="0 0 83 24" fill="none" xmlns="http://www.w3.org/2000/svg">
<path d="M20.1536 13.0691V14.5829C20.1536 17.3856 19.2566 19.6559 17.4625 21.3937C15.6685 23.1316 13.3427 24.0005 10.5112 24.0005C7.48377 24.0005 4.9613 23.0198 2.97129 21.0573C0.981273 19.0673 0 16.6565 0 13.8257C0 10.9668 0.981274 8.55602 2.9432 6.56601C4.93134 4.576 7.37204 3.59473 10.2871 3.59473C13.9588 3.59473 17.1536 5.38873 18.839 8.16401L15.5306 10.0698C14.6055 8.47238 12.5874 7.35066 10.2609 7.35066C8.38244 7.35066 6.84082 7.96738 5.63608 9.20084C4.43196 10.4062 3.8402 11.948 3.8402 13.8257C3.8402 15.6759 4.45693 17.2177 5.6623 18.4224C6.89513 19.6278 8.52122 20.2164 10.5393 20.2164C13.5356 20.2164 15.5562 18.8151 16.2572 16.4886H10.3152V13.0691H20.1536Z" fill="#17191C"/>
<path d="M29.4007 23.9998C27.3264 23.9998 25.5611 23.2994 24.1311 21.8694C22.701 20.4393 22.0012 18.6746 22.0012 16.6003C22.0012 14.526 22.7016 12.7882 24.1311 11.3569C25.5605 9.92554 27.3283 9.2002 29.4007 9.2002C31.4731 9.2002 33.2409 9.92928 34.6704 11.3587C36.0998 12.7882 36.8289 14.526 36.8289 16.6022C36.8289 18.6783 36.0998 20.4418 34.6704 21.8712C33.2409 23.3007 31.4769 23.9998 29.4007 23.9998ZM29.4007 20.468C30.4944 20.468 31.3914 20.1041 32.1198 19.375C32.8483 18.6459 33.2128 17.7214 33.2128 16.6003C33.2128 15.4792 32.8489 14.5541 32.1198 13.825C31.3907 13.096 30.4962 12.7339 29.4007 12.7339C28.3052 12.7339 27.4107 13.0984 26.6822 13.8269C25.9812 14.556 25.6167 15.4805 25.6167 16.6022C25.6167 17.7239 25.9812 18.6484 26.6822 19.3769C27.4126 20.1041 28.3096 20.468 29.4007 20.468Z" fill="#17191C"/>
<path d="M51.2658 7.68705H43.4175V12.34H51.0417V16.0429H43.4175V23.6084H39.5474V3.9873H51.264L51.2658 7.68705Z" fill="#17191C"/>
<path d="M82.5217 23.6081H78.3451L75.3176 19.3472L72.2627 23.6081H68.0835L73.2133 16.4602L68.3076 9.59375H72.4842L75.3151 13.5457L78.1466 9.59375H82.2945L77.3894 16.4327L82.5217 23.6081Z" fill="#17191C"/>
<path d="M53.0942 19.4888C53.7272 20.9382 54.8038 22.1494 56.1689 22.948C57.5341 23.7467 59.1174 24.0916 60.6911 23.9331C62.2647 23.7746 63.7475 23.1208 64.926 22.066C66.1044 21.0112 66.9178 19.6096 67.249 18.0631C61.764 14.8596 55.6423 16.8964 53.0942 19.4888Z" fill="url(#paint0_linear)"/>
<path d="M53.0942 19.4891C53.5425 20.5144 54.2151 21.4262 55.0624 22.1572C55.9096 22.8882 56.9101 23.4199 57.99 23.7132C58.4175 23.2468 58.7446 22.6975 58.9511 22.0995C59.1575 21.5015 59.2389 20.8674 59.1902 20.2366C59.1415 19.6058 58.9638 18.9917 58.668 18.4324C58.3722 17.8732 57.9646 17.3806 57.4706 16.9854C57.4401 16.9941 57.4082 17.0041 57.3808 17.0141C55.7962 17.5339 54.3366 18.3766 53.0942 19.4891Z" fill="url(#paint1_linear)"/>
<path d="M54.1455 8.71286C54.1437 9.80798 54.2907 10.8983 54.5825 11.9538C55.2135 10.2057 56.4728 8.75519 58.1148 7.88477C59.7569 7.01435 61.6642 6.7864 63.4651 7.24532L63.4988 7.24032C61.8867 6.83344 60.4564 5.90042 59.4343 4.589C58.4122 3.27758 57.8567 1.66268 57.8559 0C56.6809 1.12634 55.7464 2.47909 55.1087 3.97657C54.471 5.47406 54.1434 7.08524 54.1455 8.71286Z" fill="url(#paint2_linear)"/>
<path d="M57.3365 16.8964C57.0104 15.8575 56.915 14.7599 57.0571 13.6803C57.1993 12.6007 57.5754 11.5652 58.1593 10.6461C58.7432 9.72695 59.5207 8.94643 60.4376 8.35903C61.3545 7.77164 62.3886 7.39155 63.4676 7.24532C61.6667 6.7864 59.7594 7.01435 58.1173 7.88477C56.4752 8.75519 55.216 10.2057 54.585 11.9538C55.0976 13.7961 56.0407 15.4901 57.3365 16.8964Z" fill="url(#paint3_linear)"/>
<path d="M56.9912 14.6401C56.9903 15.3995 57.1054 16.1546 57.3327 16.8792L57.3439 16.9154C57.3539 16.9485 57.3651 16.981 57.3757 17.0134C59.002 16.4815 60.7224 16.2999 62.4238 16.4808C64.1253 16.6617 65.7691 17.2008 67.2471 18.0627C67.3561 17.5497 67.411 17.0267 67.4107 16.5022C67.4107 16.3557 67.4063 16.21 67.3976 16.0652C67.2884 14.1624 66.4552 12.3734 65.069 11.0653C63.6827 9.75718 61.8485 9.02906 59.9425 9.03027C59.7998 9.03027 59.6581 9.03423 59.5174 9.04214C58.7227 9.74212 58.0864 10.6035 57.6508 11.5688C57.2151 12.534 56.9903 13.5811 56.9912 14.6401Z" fill="url(#paint4_linear)"/>
<path style="mix-blend-mode:multiply" d="M57.3457 16.9165C57.3557 16.9496 57.3669 16.9821 57.3775 17.0145C59.0038 16.4826 60.7242 16.3011 62.4256 16.4819C64.1271 16.6628 65.7709 17.2019 67.2489 18.0638C67.3579 17.5508 67.4128 17.0278 67.4125 16.5033C67.4125 16.3568 67.4081 16.2112 67.3994 16.0663C63.6703 14.7236 60.0061 15.4577 57.3457 16.9165Z" fill="url(#paint5_linear)"/>
<path style="mix-blend-mode:multiply" d="M57.3346 16.8798C57.1486 15.3159 57.4607 13.7333 58.2265 12.3572C58.9924 10.9811 60.1729 9.88169 61.5999 9.21559C61.0562 9.09154 60.5003 9.02873 59.9426 9.02832C59.7999 9.02832 59.6582 9.03227 59.5175 9.04018C58.4359 9.99635 57.6541 11.2451 57.2664 12.6357C56.8788 14.0263 56.9018 15.4994 57.3328 16.8773L57.3346 16.8798Z" fill="url(#paint6_linear)"/>
<defs>
<linearGradient id="paint0_linear" x1="61.1386" y1="15.4245" x2="59.1411" y2="22.4158" gradientUnits="userSpaceOnUse">
<stop stop-color="#F19A2E"/>
<stop offset="1" stop-color="#ED1C24"/>
</linearGradient>
<linearGradient id="paint1_linear" x1="56.02" y1="22.0921" x2="56.3321" y2="17.2856" gradientUnits="userSpaceOnUse">
<stop stop-color="#F19A2E"/>
<stop offset="0.34" stop-color="#F6C07D"/>
<stop offset="0.59" stop-color="#FADAB3"/>
<stop offset="0.87" stop-color="#FEF5EA"/>
<stop offset="1" stop-color="white"/>
</linearGradient>
<linearGradient id="paint2_linear" x1="8424.72" y1="616.219" x2="8227.54" y2="2052.25" gradientUnits="userSpaceOnUse">
<stop stop-color="#F19A2E"/>
<stop offset="1" stop-color="#ED1C24"/>
</linearGradient>
<linearGradient id="paint3_linear" x1="8563.36" y1="2454.47" x2="7035.67" y2="1125.38" gradientUnits="userSpaceOnUse">
<stop stop-color="#F19A2E"/>
<stop offset="0.34" stop-color="#F6C07D"/>
<stop offset="0.59" stop-color="#FADAB3"/>
<stop offset="0.87" stop-color="#FEF5EA"/>
<stop offset="1" stop-color="white"/>
</linearGradient>
<linearGradient id="paint4_linear" x1="8321.62" y1="1509.32" x2="8716.45" y2="2439.21" gradientUnits="userSpaceOnUse">
<stop stop-color="#F19A2E"/>
<stop offset="1" stop-color="#ED1C24"/>
</linearGradient>
<linearGradient id="paint5_linear" x1="66.8494" y1="16.6806" x2="60.42" y2="16.8054" gradientUnits="userSpaceOnUse">
<stop stop-color="#F19A2E" stop-opacity="0"/>
<stop offset="1" stop-color="#ED1C24"/>
</linearGradient>
<linearGradient id="paint6_linear" x1="4220.52" y1="1772.07" x2="3543.5" y2="1005.32" gradientUnits="userSpaceOnUse">
<stop stop-color="#F19A2E" stop-opacity="0"/>
<stop offset="1" stop-color="#ED1C24"/>
</linearGradient>
</defs>
</svg>
